# xmcd
#
# Track frame offsets:
#	150
#	17255
#	33838
#	55173
#
# Disc length: 1006 seconds
#
# Revision: 1
# Processed by: cddbd v1.5.2PL0 Copyright (c) Steve Scherf et al.
# Submitted via: EZCDAudioConverter 3.0.7.1
#
DISCID=2003ec04
DTITLE=Garth Brooks - Standing Outside The Fire
DYEAR=1193
DGENRE=Country
TTITLE0=Standing Outside The Fire
TTITLE1=Unanswered Prayers
TTITLE2=In Lonesome Dove
TTITLE3=Ain't Going Down (Til The Sun Comes Up)
EXTD=
EXTT0=
EXTT1=
EXTT2=
EXTT3=
PLAYORDER=
